<?xml version="1.0" standalone="no"?>
<!DOCTYPE svg PUBLIC "-//W3C//DTD SVG 20010904//EN"
 "http://www.w3.org/TR/2001/REC-SVG-20010904/DTD/svg10.dtd">
<svg version="1.0" xmlns="http://www.w3.org/2000/svg"
 width="131.000000pt" height="131.000000pt" viewBox="0 0 131.000000 131.000000"
 preserveAspectRatio="xMidYMid meet">
<metadata>
Created by potrace 1.11, written by Peter Selinger 2001-2013
</metadata>
<g transform="translate(0.000000,131.000000) scale(0.100000,-0.100000)"
fill="#000000" stroke="none">
<path d="M364 1250 c-106 -21 -227 -116 -272 -213 -66 -142 -43 -305 59 -422
39 -44 114 -95 141 -95 25 0 23 16 -3 23 -28 7 -19 32 11 32 17 0 31 12 51 47
25 43 27 58 8 58 -4 0 -18 -18 -30 -40 -12 -22 -24 -38 -25 -37 -2 2 3 24 11
50 8 26 10 47 6 47 -5 0 -16 -27 -25 -59 -24 -87 -44 -90 -115 -16 -33 35 -51
60 -43 63 6 2 12 8 12 13 0 4 -7 6 -15 3 -16 -7 -29 20 -48 99 -9 40 -8 50 4
58 12 7 12 10 0 18 -10 6 -11 20 -6 51 14 85 46 134 61 95 3 -8 25 -20 48 -25
22 -6 50 -14 61 -17 13 -3 16 -2 10 4 -5 5 -30 15 -55 22 -25 7 -53 21 -62 31
-16 17 -16 20 9 52 35 44 97 92 101 79 2 -6 8 -11 13 -11 4 0 6 7 3 14 -11 29
140 71 157 45 8 -12 11 -12 18 0 8 12 18 13 58 4 79 -19 106 -32 99 -48 -3 -8
-1 -15 3 -15 5 0 11 5 13 11 4 12 63 -32 96 -73 16 -18 21 -35 17 -48 -4 -11
-11 -18 -16 -15 -10 7 -109 -45 -109 -57 0 -22 28 -15 81 21 34 23 63 41 65
41 8 0 32 -69 39 -110 5 -31 4 -45 -6 -52 -11 -7 -11 -11 -1 -15 6 -2 12 -11
12 -20 0 -8 6 -13 13 -10 8 3 11 24 10 68 -2 50 -11 80 -38 136 -80 162 -248
247 -421 213z"/>
<path d="M404 1183 c3 -10 10 -40 17 -66 8 -35 16 -47 26 -43 8 3 19 6 24 6
14 0 6 113 -8 117 -8 3 -13 -14 -15 -54 l-3 -58 -14 58 c-8 31 -18 57 -23 57
-5 0 -7 -8 -4 -17z"/>
<path d="M290 1165 c0 -2 14 -28 31 -57 l31 -53 -46 44 c-25 25 -48 43 -51 40
-2 -3 16 -25 40 -49 32 -31 48 -41 56 -33 7 7 1 25 -21 62 -29 46 -40 59 -40
46z"/>
<path d="M503 1158 c-7 -7 -11 -27 -11 -43 0 -17 -5 -50 -11 -74 -7 -23 -10
-45 -8 -48 3 -2 10 20 17 49 7 29 19 60 26 69 10 11 12 23 6 38 -7 19 -10 20
-19 9z"/>
<path d="M566 1103 c-36 -63 -26 -66 13 -4 17 28 27 51 22 51 -5 0 -21 -21
-35 -47z"/>
<path d="M461 964 c0 -11 3 -14 6 -6 3 7 2 16 -1 19 -3 4 -6 -2 -5 -13z"/>
<path d="M451 924 c0 -11 3 -14 6 -6 3 7 2 16 -1 19 -3 4 -6 -2 -5 -13z"/>
<path d="M168 883 c-82 -22 -78 -43 8 -43 46 0 63 3 58 11 -4 7 -25 9 -58 6
-56 -7 -44 6 16 17 21 4 40 11 43 16 8 12 4 12 -67 -7z"/>
<path d="M427 889 c-25 -14 -4 -54 21 -40 9 5 31 7 47 5 l30 -4 -28 9 c-16 6
-34 17 -40 25 -9 11 -17 13 -30 5z"/>
<path d="M643 870 c1 -18 8 -20 64 -20 56 0 63 2 63 20 0 18 -7 20 -64 20 -59
0 -65 -2 -63 -20z"/>
<path d="M550 850 c-17 -5 -19 -8 -7 -9 9 -1 17 -5 17 -11 0 -5 14 -10 30 -10
34 0 38 7 13 26 -20 15 -19 15 -53 4z"/>
<path d="M195 750 c-35 -36 -37 -42 -27 -65 12 -25 12 -25 44 -9 69 35 78 44
66 64 -11 16 -14 16 -62 -12 l-51 -30 45 46 c24 25 40 46 34 46 -5 0 -27 -18
-49 -40z"/>
<path d="M616 768 c-14 -19 -14 -23 1 -33 13 -10 22 -9 44 4 l29 16 -23 17
c-29 23 -33 22 -51 -4z"/>
<path d="M966 701 c-4 -5 2 -12 12 -15 29 -10 96 -82 120 -130 65 -129 39
-281 -65 -377 -155 -145 -403 -106 -500 78 -17 32 -34 79 -38 105 -4 26 -11
46 -15 43 -4 -3 -4 -25 1 -49 51 -275 389 -376 578 -171 65 70 85 124 86 225
0 66 -5 95 -21 131 -34 73 -144 184 -158 160z"/>
<path d="M540 680 c0 -5 5 -10 10 -10 6 0 10 5 10 10 0 6 -4 10 -10 10 -5 0
-10 -4 -10 -10z"/>
<path d="M472 650 c0 -14 2 -19 5 -12 2 6 2 18 0 25 -3 6 -5 1 -5 -13z"/>
<path d="M428 635 c2 -14 9 -25 14 -25 6 0 7 7 4 16 -3 9 -6 20 -6 25 0 5 -4
9 -9 9 -4 0 -6 -11 -3 -25z"/>
<path d="M791 603 l-74 -46 27 -24 c32 -28 90 -31 125 -7 29 21 52 74 44 102
-8 33 -40 27 -122 -25z"/>
<path d="M948 555 c-35 -20 -48 -44 -48 -93 0 -69 82 -123 141 -92 27 15 26
92 -3 150 -25 50 -47 58 -90 35z"/>
<path d="M622 500 c-63 -40 -63 -41 -60 -82 2 -36 7 -44 29 -52 61 -21 129 30
129 96 0 39 -14 78 -28 78 -4 0 -35 -18 -70 -40z"/>
<path d="M795 481 c-7 -12 12 -24 25 -16 11 7 4 25 -10 25 -5 0 -11 -4 -15 -9z"/>
<path d="M784 436 c-10 -26 4 -48 28 -44 17 2 23 10 23 28 0 18 -6 26 -23 28
-13 2 -25 -3 -28 -12z"/>
<path d="M747 433 c-12 -11 -8 -23 8 -23 8 0 15 7 15 15 0 16 -12 20 -23 8z"/>
<path d="M850 426 c0 -9 7 -16 16 -16 17 0 14 22 -4 28 -7 2 -12 -3 -12 -12z"/>
<path d="M795 371 c-3 -5 -1 -12 5 -16 12 -7 30 2 30 16 0 12 -27 12 -35 0z"/>
<path d="M619 321 c-16 -16 -29 -33 -29 -38 0 -16 74 -82 115 -102 l40 -20 23
25 c15 17 22 38 22 65 0 90 -107 134 -171 70z"/>
<path d="M859 322 c-26 -23 -32 -36 -32 -71 0 -59 33 -94 74 -79 32 11 129 94
129 110 0 5 -13 23 -29 39 -41 40 -98 41 -142 1z"/>
<path d="M1097 194 c-13 -13 -8 -59 9 -83 18 -24 71 -51 102 -51 16 0 20 9 25
48 3 26 4 48 3 49 -1 2 -16 -1 -33 -6 -32 -9 -58 0 -83 32 -8 10 -19 15 -23
11z"/>
</g>
</svg>
